<svg width="46" height="45" viewBox="0 0 46 45" fill="none" xmlns="http://www.w3.org/2000/svg">
<path d="M23.1446 4.21875C19.9884 4.21806 16.8858 5.03453 14.1387 6.58868C11.3917 8.14284 9.0938 10.3817 7.46875 13.0874C5.84369 15.7932 4.94683 18.8735 4.86545 22.0287C4.78408 25.1838 5.52096 28.3063 7.00438 31.0922L5.00926 37.0775C4.844 37.5731 4.82002 38.1049 4.94 38.6133C5.05999 39.1217 5.31919 39.5867 5.68857 39.956C6.05795 40.3254 6.52291 40.5846 7.03132 40.7046C7.53974 40.8246 8.07152 40.8006 8.56708 40.6354L14.5524 38.6402C17.0042 39.9443 19.7208 40.6726 22.496 40.77C25.2713 40.8674 28.0323 40.3312 30.5694 39.2023C33.1065 38.0733 35.3531 36.3811 37.1386 34.2543C38.9241 32.1274 40.2016 29.6218 40.8741 26.9275C41.5467 24.2332 41.5966 21.4211 41.02 18.7046C40.4435 15.9881 39.2557 13.4387 37.5468 11.2499C35.8379 9.06099 33.6527 7.29021 31.1573 6.07193C28.6618 4.85365 25.9216 4.21989 23.1446 4.21875ZM15.4102 24.6094C14.993 24.6094 14.5852 24.4857 14.2383 24.2539C13.8915 24.0221 13.6211 23.6927 13.4614 23.3072C13.3018 22.9218 13.26 22.4977 13.3414 22.0885C13.4228 21.6793 13.6237 21.3034 13.9187 21.0084C14.2137 20.7134 14.5895 20.5125 14.9987 20.4312C15.4079 20.3498 15.832 20.3915 16.2175 20.5512C16.6029 20.7108 16.9323 20.9812 17.1641 21.3281C17.3959 21.675 17.5196 22.0828 17.5196 22.5C17.5196 23.0594 17.2974 23.596 16.9018 23.9916C16.5062 24.3871 15.9697 24.6094 15.4102 24.6094ZM23.1446 24.6094C22.7274 24.6094 22.3196 24.4857 21.9727 24.2539C21.6258 24.0221 21.3555 23.6927 21.1958 23.3072C21.0362 22.9218 20.9944 22.4977 21.0758 22.0885C21.1572 21.6793 21.3581 21.3034 21.6531 21.0084C21.9481 20.7134 22.3239 20.5125 22.7331 20.4312C23.1423 20.3498 23.5664 20.3915 23.9518 20.5512C24.3373 20.7108 24.6667 20.9812 24.8985 21.3281C25.1303 21.675 25.254 22.0828 25.254 22.5C25.254 23.0594 25.0318 23.596 24.6362 23.9916C24.2406 24.3871 23.7041 24.6094 23.1446 24.6094ZM30.879 24.6094C30.4618 24.6094 30.054 24.4857 29.7071 24.2539C29.3602 24.0221 29.0898 23.6927 28.9302 23.3072C28.7705 22.9218 28.7288 22.4977 28.8101 22.0885C28.8915 21.6793 29.0924 21.3034 29.3874 21.0084C29.6824 20.7134 30.0583 20.5125 30.4675 20.4312C30.8767 20.3498 31.3008 20.3915 31.6862 20.5512C32.0717 20.7108 32.4011 20.9812 32.6329 21.3281C32.8647 21.675 32.9884 22.0828 32.9884 22.5C32.9884 23.0594 32.7661 23.596 32.3705 23.9916C31.975 24.3871 31.4384 24.6094 30.879 24.6094Z" fill="white"/>
</svg>
