<svg width="28" height="27" viewBox="0 0 28 27" fill="none" xmlns="http://www.w3.org/2000/svg">
<path d="M11.4791 2H4.60411C3.71955 2 3 2.75226 3 3.67702V7.98952C3 8.91446 3.71955 9.66673 4.60411 9.66673H11.4791C12.3638 9.66673 13.0834 8.91446 13.0834 7.98952V3.67702C13.0834 2.75226 12.3638 2 11.4791 2ZM11.4791 11.5833H4.60411C3.71955 11.5833 3 12.3355 3 13.2605V23.323C3 24.2477 3.71955 25 4.60411 25H11.4791C12.3638 25 13.0834 24.2477 13.0834 23.323V13.2605C13.0834 12.3355 12.3638 11.5833 11.4791 11.5833ZM23.3959 17.3333H16.5209C15.6362 17.3333 14.9166 18.0855 14.9166 19.0105V23.323C14.9166 24.2477 15.6362 25 16.5209 25H23.3959C24.2804 25 25 24.2477 25 23.323V19.0105C25 18.0855 24.2804 17.3333 23.3959 17.3333ZM23.3959 2H16.5209C15.6362 2 14.9166 2.75226 14.9166 3.67702V13.7395C14.9166 14.6645 15.6362 15.4167 16.5209 15.4167H23.3959C24.2804 15.4167 25 14.6645 25 13.7395V3.67702C25 2.75226 24.2804 2 23.3959 2Z" fill="white"/>
</svg>
