<svg width="27" height="25" viewBox="0 0 27 25" fill="none" xmlns="http://www.w3.org/2000/svg">
<path fill-rule="evenodd" clip-rule="evenodd" d="M20.1604 24.3096V20.6392C20.1604 20.5612 20.2252 20.4953 20.3027 20.4953H24.627C24.705 20.4953 24.772 20.5612 24.772 20.6392V24.3096H20.1604ZM2.54812 20.6366C1.78558 19.7807 1.18019 18.7793 0.782577 17.7114C0.676581 17.4314 0.715604 17.1298 0.886464 16.8846C1.05732 16.6393 1.32732 16.4985 1.62527 16.4985H1.89527V10.2627C1.89527 10.0881 2.03555 9.94629 2.21062 9.94629H16.6662C16.8391 9.94629 16.9815 10.0881 16.9815 10.2627V16.4991H17.3496C17.6133 16.4991 17.8532 16.6225 18.0046 16.8376C18.158 17.0533 18.1949 17.3196 18.1063 17.568C17.7045 18.7055 17.0712 19.7675 16.2612 20.6688C16.6003 20.8054 16.8919 21.0195 17.1018 21.2942C17.3612 21.6333 17.8363 21.8437 18.3463 21.8437C18.8172 21.8437 19.2602 21.6644 19.5281 21.3707V20.6392C19.5281 20.211 19.8761 19.8625 20.3038 19.8625H20.9972V6.86555H20.4267C20.2516 6.86555 20.1092 6.72369 20.1092 6.54914V5.74916H9.83865V7.98352H10.8C10.973 7.98352 11.1154 8.12537 11.1154 8.29992V8.84256C11.1154 9.31664 10.7309 9.70213 10.2553 9.70213C10.0802 9.70213 9.9399 9.56027 9.9399 9.38572C9.9399 9.21064 10.0802 9.06932 10.2553 9.06932C10.285 9.06932 10.3145 9.06345 10.342 9.05206C10.3695 9.04066 10.3945 9.02396 10.4156 9.0029C10.4367 8.98184 10.4534 8.95685 10.4648 8.92934C10.4761 8.90182 10.482 8.87234 10.482 8.84256V8.61633H8.56301V8.84256C8.56301 8.96754 8.66478 9.06932 8.78766 9.06932C8.96273 9.06932 9.10512 9.21064 9.10512 9.38572C9.10512 9.56027 8.96273 9.70213 8.78766 9.70213C8.31463 9.70213 7.92967 9.31664 7.92967 8.84256V8.29992C7.92967 8.12537 8.06994 7.98352 8.24502 7.98352H9.20426V5.74916H7.30055C7.12547 5.74916 6.98519 5.60731 6.98519 5.43275V3.58494C6.98519 3.41039 7.12547 3.26854 7.30055 3.26854H20.1076V2.46855C20.1076 2.294 20.25 2.15215 20.4251 2.15215H20.9957V0.375C20.9957 0.199922 21.1359 0.0585938 21.311 0.0585938C21.4861 0.0585938 21.6264 0.199922 21.6264 0.375V2.15162H23.3012V0.786855C23.3012 0.611777 23.4436 0.470449 23.6166 0.470449C23.7916 0.470449 23.934 0.611777 23.934 0.786855V2.15215H24.5046C24.6797 2.15215 24.82 2.294 24.82 2.46855V2.83348H26.2633C26.4384 2.83348 26.5808 2.9748 26.5808 3.14988V5.2851C26.5808 5.42273 26.4901 5.54508 26.3582 5.58674L24.82 6.07242V6.54914C24.82 6.72369 24.6797 6.86555 24.5046 6.86555H23.934V19.8625H24.627C25.0546 19.8625 25.4048 20.211 25.4048 20.6392V24.626C25.4048 24.801 25.2624 24.9424 25.0873 24.9424H19.8429C19.672 24.9424 19.5339 24.8063 19.5275 24.6365C19.1863 24.8332 18.7777 24.9429 18.3458 24.9429C17.6328 24.9429 16.9778 24.6444 16.5976 24.144C16.3382 23.8054 15.8609 23.5945 15.3531 23.5945C14.841 23.5945 14.3654 23.8054 14.1064 24.1445C13.7262 24.6444 13.0713 24.9429 12.3583 24.9429C11.6432 24.9429 10.9883 24.6444 10.608 24.144C10.3486 23.8054 9.87346 23.5945 9.36351 23.5945C8.85357 23.5945 8.3758 23.8054 8.11687 24.1445C7.73666 24.6444 7.0817 24.9429 6.36873 24.9429C5.65365 24.9429 5.0008 24.6444 4.61848 24.144C4.36113 23.8054 3.88389 23.5945 3.37394 23.5945C2.864 23.5945 2.38623 23.8054 2.1273 24.1445C1.75764 24.6291 1.12482 24.9276 0.433475 24.9424L0.418182 24.3096C0.919686 24.299 1.37109 24.0939 1.62369 23.7606C2.00601 23.2607 2.65887 22.9617 3.37394 22.9617C4.08691 22.9617 4.74187 23.2607 5.12209 23.7606C5.38154 24.0997 5.85879 24.3101 6.36873 24.3101C6.87867 24.3101 7.35644 24.0997 7.61326 23.7606C7.99558 23.2607 8.64844 22.9617 9.36351 22.9617C10.0765 22.9617 10.7314 23.2607 11.1117 23.7606C11.3711 24.0997 11.8484 24.3101 12.3583 24.3101C12.8682 24.3101 13.3434 24.0997 13.6028 23.7606C13.983 23.2607 14.638 22.9617 15.3531 22.9617C16.0661 22.9617 16.721 23.2607 17.1012 23.7606C17.3607 24.0997 17.8358 24.3101 18.3458 24.3101C18.8167 24.3101 19.2596 24.1308 19.5275 23.8371V22.1706C19.1863 22.3668 18.7777 22.4765 18.3458 22.4765C17.6328 22.4765 16.9778 22.178 16.5976 21.6776C16.3382 21.339 15.8609 21.1281 15.3531 21.1281C14.841 21.1281 14.3654 21.339 14.1064 21.6781C13.7262 22.178 13.0713 22.4765 12.3583 22.4765C11.6432 22.4765 10.9883 22.178 10.608 21.6776C10.3486 21.339 9.87346 21.1281 9.36351 21.1281C8.85357 21.1281 8.3758 21.339 8.11687 21.6776C7.73666 22.178 7.0817 22.4765 6.36873 22.4765C5.65365 22.4765 5.0008 22.178 4.61848 21.6776C4.36113 21.339 3.88389 21.1281 3.37394 21.1281C2.864 21.1281 2.38623 21.339 2.1273 21.6776C1.75764 22.1627 1.12482 22.4612 0.433475 22.476L0.418182 21.8432C0.919686 21.8326 1.37109 21.6275 1.62369 21.2942C1.84992 20.9968 2.17424 20.7716 2.54812 20.6366ZM13.4989 12.1901V14.888C13.4989 15.081 13.6566 15.2382 13.8491 15.2382C13.8951 15.2383 13.9407 15.2292 13.9832 15.2117C14.0257 15.1941 14.0643 15.1683 14.0969 15.1358C14.1294 15.1033 14.1552 15.0646 14.1727 15.0221C14.1903 14.9796 14.1993 14.934 14.1993 14.888V12.1901C14.1993 12.1441 14.1903 12.0986 14.1727 12.0561C14.1552 12.0135 14.1294 11.9749 14.0969 11.9424C14.0643 11.9099 14.0257 11.8841 13.9832 11.8665C13.9407 11.8489 13.8951 11.8399 13.8491 11.84C13.6566 11.8395 13.4989 11.9971 13.4989 12.1901ZM15.1669 18.3685C14.9702 18.3685 14.8083 18.5299 14.8083 18.7281C14.8083 18.9264 14.9702 19.0878 15.1669 19.0878C15.3657 19.0878 15.5276 18.9264 15.5276 18.7281C15.5276 18.5299 15.3657 18.3685 15.1669 18.3685ZM11.9865 18.7287C11.9865 18.927 12.1484 19.0883 12.3451 19.0883C12.5439 19.0883 12.7058 18.927 12.7058 18.7287C12.7058 18.5304 12.5439 18.369 12.3451 18.369C12.1484 18.3685 11.9865 18.5299 11.9865 18.7287ZM9.16418 18.7287C9.16418 18.927 9.32607 19.0883 9.52488 19.0883C9.72158 19.0883 9.88348 18.927 9.88348 18.7287C9.88348 18.5304 9.72158 18.369 9.52488 18.369C9.3266 18.3685 9.16418 18.5299 9.16418 18.7287ZM6.34447 18.7287C6.34447 18.927 6.50426 19.0883 6.70307 19.0883C6.90187 19.0883 7.06166 18.927 7.06166 18.7287C7.06166 18.5304 6.90187 18.369 6.70307 18.369C6.50426 18.3685 6.34447 18.5299 6.34447 18.7287ZM3.88125 19.0878C4.08006 19.0878 4.24195 18.9264 4.24195 18.7281C4.24195 18.5299 4.08006 18.3685 3.88125 18.3685C3.68455 18.3685 3.52266 18.5299 3.52266 18.7281C3.52266 18.9264 3.68455 19.0878 3.88125 19.0878ZM5.3789 14.888V12.1901C5.3789 11.9971 5.22123 11.84 5.02875 11.84C4.83627 11.84 4.67859 11.9971 4.67859 12.1901V14.888C4.67859 15.081 4.83627 15.2382 5.02875 15.2382C5.2207 15.2377 5.3789 15.081 5.3789 14.888ZM8.31937 14.888V12.1901C8.31937 11.9971 8.1617 11.84 7.96922 11.84C7.77463 11.84 7.61695 11.9971 7.61695 12.1901V14.888C7.61695 15.081 7.77463 15.2382 7.96922 15.2382C8.1617 15.2377 8.31937 15.081 8.31937 14.888ZM11.2583 12.1901C11.2583 12.1441 11.2493 12.0986 11.2317 12.0561C11.2142 12.0135 11.1884 11.9749 11.1559 11.9424C11.1233 11.9099 11.0847 11.8841 11.0422 11.8665C10.9997 11.8489 10.9541 11.8399 10.9081 11.84C10.7156 11.84 10.5579 11.9971 10.5579 12.1901V14.888C10.5579 15.081 10.7156 15.2382 10.9081 15.2382C10.9541 15.2383 10.9997 15.2292 11.0422 15.2117C11.0847 15.1941 11.1233 15.1683 11.1559 15.1358C11.1884 15.1033 11.2142 15.0646 11.2317 15.0221C11.2493 14.9796 11.2583 14.934 11.2583 14.888V12.1901Z" fill="white"/>
</svg>
