<svg width="27" height="27" viewBox="0 0 27 27" fill="none" xmlns="http://www.w3.org/2000/svg">
<path fill-rule="evenodd" clip-rule="evenodd" d="M27 15.5763V17.0022C27 17.219 26.8671 17.4014 26.662 17.4684L25.7275 17.7716C25.5793 17.8196 25.4733 17.9224 25.4195 18.0675C25.3716 18.1946 25.3209 18.3201 25.264 18.4413C25.1981 18.5832 25.2012 18.7314 25.2729 18.8706L25.7186 19.7449C25.8156 19.938 25.7813 20.1621 25.6289 20.3145L24.6201 21.3233C24.4677 21.4757 24.2436 21.51 24.0506 21.4129L23.1762 20.9673C23.037 20.8956 22.8894 20.8924 22.747 20.9584C22.6257 21.0153 22.5002 21.0659 22.3731 21.1139C22.2281 21.1677 22.1247 21.2737 22.0772 21.4219L21.774 22.3563C21.7155 22.5356 21.5678 22.6612 21.3854 22.688L20.5975 18.6924C21.9233 18.6908 22.998 17.6161 22.998 16.2887C22.998 14.9614 21.9217 13.8867 20.5944 13.8867C19.5629 13.8867 18.6822 14.5369 18.3415 15.4503C18.3099 15.4413 18.2772 15.4307 18.2445 15.4234L15.6104 14.7299C15.6821 14.6761 15.7359 14.6012 15.7702 14.51C15.8166 14.3829 15.8688 14.259 15.9242 14.1361C15.9901 13.9958 15.987 13.8461 15.9168 13.7084L15.4712 12.8325C15.3726 12.6395 15.4085 12.4154 15.5609 12.263L16.5686 11.2552C16.7226 11.1028 16.9451 11.067 17.1381 11.1656L18.0141 11.6112C18.1517 11.6813 18.3009 11.6845 18.4417 11.6186C18.5641 11.5632 18.6885 11.511 18.8156 11.4646C18.9622 11.4108 19.064 11.3032 19.1115 11.155L19.4147 10.2222C19.4822 10.016 19.6657 9.88309 19.8809 9.88309H21.3068C21.5235 9.88309 21.706 10.016 21.773 10.2222L22.0762 11.155C22.1242 11.3032 22.227 11.4108 22.372 11.4646C22.4991 11.511 22.6246 11.5632 22.7459 11.6186C22.8878 11.6845 23.036 11.6813 23.1752 11.6112L24.0495 11.1656C24.2425 11.067 24.4666 11.1028 24.619 11.2552L25.6289 12.2635C25.7813 12.4159 25.8156 12.64 25.7186 12.833L25.2729 13.709C25.2012 13.8466 25.1981 13.9958 25.264 14.1366C25.3209 14.259 25.3716 14.3834 25.4195 14.5105C25.4733 14.6571 25.5793 14.7589 25.7275 14.8064L26.662 15.1096C26.8666 15.1771 27 15.3611 27 15.5763ZM20.8053 24.1757C20.8322 24.316 20.8459 24.4568 20.8459 24.5928C20.8459 25.0938 20.6682 25.5631 20.3644 25.9307C20.0623 26.2998 19.6367 26.5661 19.1431 26.6632C19.0071 26.6901 18.8678 26.7038 18.726 26.7038H16.8797C16.8903 26.6605 16.8977 26.6157 16.9035 26.5693L17.7942 19.149C17.8406 18.7572 17.7193 18.3702 17.4577 18.0759C17.193 17.7785 16.8286 17.6139 16.431 17.6139H4.41598C4.01836 17.6139 3.65186 17.7785 3.38924 18.0759C3.12768 18.3702 3.00639 18.7578 3.05279 19.149L3.95982 26.7038H2.1215C1.97965 26.7038 1.83885 26.6901 1.70438 26.6632C1.21131 26.5661 0.785215 26.2998 0.483047 25.9307C0.179297 25.5631 0 25.0938 0 24.5928C0 24.4568 0.0137109 24.3165 0.0416602 24.1757L1.28145 17.8919C1.36055 17.4869 1.54617 17.1293 1.81195 16.8456C2.07668 16.563 2.42051 16.3583 2.82076 16.2523L6.33814 15.3269C6.45943 15.2952 6.56543 15.252 6.6593 15.1966C6.75369 15.1412 6.84334 15.0695 6.92824 14.9783L7.75354 14.1171V13.5713C7.75354 13.5655 7.75512 13.5581 7.75512 13.5502C7.47909 13.3723 7.22168 13.167 6.98678 12.9375C6.17678 12.148 5.63414 11.0823 5.51602 9.8968C5.19328 9.81453 4.90482 9.64262 4.67912 9.41111C4.36693 9.08838 4.17393 8.65016 4.17393 8.16764C4.17393 7.72203 4.33529 7.31545 4.60424 7.00326V4.20359C4.60424 3.62035 4.84207 3.08984 5.22439 2.70594C5.55188 2.38004 5.98377 2.15908 6.46523 2.10055C6.53379 1.64176 6.74947 1.23043 7.06324 0.91666C7.44768 0.532227 7.9766 0.294922 8.5609 0.294922H11.3579C12.7032 0.294922 13.9245 0.843359 14.8094 1.72824C15.6943 2.61313 16.2427 3.83445 16.2427 5.17971V7.00326C16.5117 7.31545 16.673 7.72203 16.673 8.16764C16.673 8.65068 16.48 9.08838 16.1678 9.41111C15.9421 9.64262 15.6537 9.81453 15.3309 9.8968C15.2112 11.0823 14.6702 12.148 13.8602 12.9375C13.6253 13.167 13.3679 13.3723 13.0918 13.5502V14.1171L13.9171 14.9783C14.0036 15.0695 14.0922 15.1412 14.1861 15.1966C14.2815 15.252 14.388 15.2952 14.5088 15.3269L18.0262 16.2523C18.4254 16.3583 18.7692 16.5635 19.035 16.8456C19.3013 17.1298 19.4848 17.4869 19.5655 17.8919L20.8053 24.1757ZM10.4235 13.4833C11.5251 13.4833 12.5281 13.0408 13.2638 12.3247C14.002 11.6059 14.4703 10.6129 14.4983 9.51764C14.5004 9.4078 14.5448 9.30301 14.6222 9.22504C14.6995 9.14707 14.804 9.1019 14.9138 9.09893C15.1648 9.09154 15.3905 8.98396 15.5551 8.81469C15.7164 8.64857 15.8166 8.42023 15.8166 8.16764C15.8166 7.91029 15.7122 7.67721 15.5429 7.50846C15.3758 7.34129 15.1421 7.23635 14.8853 7.23635C14.8284 7.23635 14.7746 7.24057 14.7271 7.24848C14.6823 7.25586 14.6406 7.26641 14.5969 7.28117C14.5473 7.30227 14.4925 7.31281 14.4339 7.31281C14.1977 7.31281 14.0047 7.12139 14.0047 6.88514V6.17217C14.0047 6.03611 13.982 5.91377 13.9361 5.80303C13.8897 5.6907 13.818 5.58787 13.7236 5.49348C13.6281 5.39908 13.5248 5.32895 13.4125 5.28412C13.2975 5.23771 13.1746 5.21557 13.0417 5.21557C12.0867 5.22453 11.176 5.18709 10.318 5.09744C9.46424 5.00779 8.66004 4.86699 7.91121 4.66818C7.319 4.66502 7.10385 5.87475 6.94828 6.74592L6.90768 6.96582C6.90346 7.00326 6.89396 7.0407 6.8792 7.07656C6.78797 7.29488 6.53695 7.39772 6.32021 7.30807C6.26361 7.28385 6.20456 7.26582 6.14408 7.25428C6.08449 7.24215 6.02279 7.23635 5.96004 7.23635C5.70269 7.23635 5.46961 7.34076 5.30086 7.50846C5.13369 7.67721 5.02875 7.91082 5.02875 8.16764C5.02875 8.42023 5.12895 8.6491 5.29031 8.81469C5.45484 8.98344 5.68055 9.09102 5.92998 9.09893C6.15568 9.10473 6.34131 9.28719 6.34553 9.51606C6.374 10.6119 6.84334 11.6059 7.58004 12.3247C8.31727 13.0408 9.32027 13.4833 10.4235 13.4833ZM12.2354 13.9948C11.6733 14.2173 11.0621 14.3418 10.4235 14.3418C9.78486 14.3418 9.17367 14.2179 8.61152 13.9948V14.4868C8.61152 14.9878 8.81508 15.4402 9.14203 15.7677C9.46951 16.0952 9.9225 16.2982 10.4229 16.2982C10.9234 16.2982 11.3764 16.0952 11.7039 15.7677C12.0313 15.4402 12.2344 14.9872 12.2344 14.4868V13.9948H12.2354ZM16.9425 19.0473L16.0518 26.4675C16.0371 26.6036 15.9231 26.7038 15.7855 26.7038H4.82256L3.9034 19.0473C3.88547 18.8964 3.92871 18.7588 4.03049 18.6438C4.13227 18.5305 4.26357 18.4704 4.41598 18.4704H16.4315C16.5839 18.4704 16.7157 18.5299 16.817 18.6438C16.9188 18.7588 16.9604 18.8959 16.9425 19.0473ZM11.3743 22.5868C11.3743 22.0637 10.9466 21.636 10.4235 21.636C9.89877 21.636 9.47109 22.0637 9.47109 22.5868C9.47109 23.1115 9.89877 23.5376 10.4235 23.5376C10.9466 23.5376 11.3743 23.1115 11.3743 22.5868Z" fill="white"/>
</svg>
