<svg width="27" height="27" viewBox="0 0 27 27" fill="none" xmlns="http://www.w3.org/2000/svg">
<g clip-path="url(#clip0_776_2874)">
<path d="M11.127 14.291H12.709V17.4551H11.127V14.291Z" fill="white"/>
<path d="M19.8281 6.38086H21.4102V19.0371H5.58984V6.38086H7.17188V3.2168H0V22.2539H27V3.2168H19.8281V6.38086Z" fill="white"/>
<path d="M14.291 14.291H15.873V17.4551H14.291V14.291ZM17.2339 25.418L16.7066 23.8359H10.2934L9.76614 25.418H6.38086V27H20.6191V25.418H17.2339Z" fill="white"/>
<path d="M19.8281 17.4551V7.96289H18.2461V0H8.75391V7.96289H7.17188V17.4551H9.54492V12.709H17.4551V17.4551H19.8281ZM14.291 2.42578H15.873V4.00781H14.291V2.42578ZM14.291 5.58984H15.873V7.17188H14.291V5.58984ZM11.127 2.42578H12.709V4.00781H11.127V2.42578ZM11.127 5.58984H12.709V7.17188H11.127V5.58984ZM9.54492 11.127V9.54492H17.4551V11.127H9.54492Z" fill="white"/>
</g>
<defs>
<clipPath id="clip0_776_2874">
<rect width="27" height="27" fill="white"/>
</clipPath>
</defs>
</svg>
