<svg width="27" height="23" viewBox="0 0 27 23" fill="none" xmlns="http://www.w3.org/2000/svg">
<path d="M10.9089 5.08577L9.21362 7.80286C9.11327 7.96158 9.06023 8.14562 9.06072 8.33341V13.8077C9.06055 13.9393 9.08634 14.0696 9.1366 14.1911C9.18686 14.3127 9.26061 14.4232 9.35362 14.5163C9.44663 14.6093 9.55708 14.6831 9.67865 14.7334C9.80022 14.7837 9.93052 14.8096 10.0621 14.8095H23.7444C23.876 14.8096 24.0064 14.7838 24.128 14.7335C24.2496 14.6833 24.3601 14.6095 24.4532 14.5164C24.5462 14.4234 24.62 14.3129 24.6703 14.1912C24.7206 14.0696 24.7464 13.9393 24.7462 13.8077V9.44506C24.7462 9.20534 24.6601 8.9736 24.5035 8.7921C24.3469 8.61059 24.1303 8.49139 23.8932 8.45623L18.4866 7.63742V4.12326C18.486 3.85778 18.3803 3.60333 18.1925 3.41565C18.0047 3.22796 17.7503 3.12234 17.4848 3.12189H12.6931C12.3455 3.12189 12.0272 3.29986 11.8405 3.59271L11.3596 4.36347L6.964 1.1292L6.96484 1.11792C6.96484 0.499637 6.4652 0 5.84943 0C5.23365 0 4.73443 0.499637 4.73443 1.11792C4.73443 1.41411 4.85224 1.68189 5.04065 1.88157L3.14905 7.3617C2.86824 7.38156 2.60539 7.50706 2.41339 7.71293C2.22139 7.9188 2.11451 8.18976 2.11427 8.47127C2.11427 8.5991 2.14058 8.71983 2.17985 8.83388L0.441569 10.3194C0.305921 10.4352 0.196958 10.579 0.122175 10.7409C0.0473914 10.9028 0.00856132 11.0789 0.00835512 11.2573L0 13.5871C0 14.1385 0.360524 14.6186 0.882719 14.7543C0.948307 14.7715 4.51135 15.7135 4.57903 15.7135C4.72357 15.7135 4.85892 15.637 4.93997 15.5138C4.98705 15.437 5.00867 15.3472 5.00177 15.2573C4.99487 15.1675 4.9598 15.0821 4.90154 15.0133C4.17589 14.1515 3.76858 13.0482 3.75145 11.9023L3.71845 9.46929C3.90581 9.37833 4.06388 9.2366 4.17466 9.06024C4.28544 8.88388 4.34449 8.67995 4.34508 8.47168C4.34472 8.31133 4.30966 8.15296 4.24231 8.00744C4.17496 7.86192 4.07691 7.7327 3.9549 7.62865L5.81809 2.22998C5.82896 2.22998 5.83898 2.23333 5.84984 2.23333C6.14645 2.23333 6.41465 2.1151 6.61434 1.92586L10.9089 5.08577ZM20.8155 9.59628H22.6909C22.8034 9.59628 22.9114 9.641 22.991 9.7206C23.0706 9.8002 23.1153 9.90816 23.1153 10.0207C23.1153 10.1333 23.0706 10.2413 22.991 10.3208C22.9114 10.4004 22.8034 10.4452 22.6909 10.4452H20.8151C20.7026 10.4452 20.5946 10.4004 20.515 10.3208C20.4354 10.2413 20.3907 10.1333 20.3907 10.0207C20.3907 9.90816 20.4354 9.8002 20.515 9.7206C20.5946 9.641 20.703 9.59628 20.8155 9.59628ZM20.8155 11.1086H22.6909C22.8034 11.1086 22.9114 11.1533 22.991 11.2329C23.0706 11.3125 23.1153 11.4204 23.1153 11.533C23.1153 11.6456 23.0706 11.7535 22.991 11.8331C22.9114 11.9127 22.8034 11.9574 22.6909 11.9574H20.8151C20.7026 11.9574 20.5946 11.9127 20.515 11.8331C20.4354 11.7535 20.3907 11.6456 20.3907 11.533C20.3907 11.4204 20.4354 11.3125 20.515 11.2329C20.5946 11.1533 20.703 11.1086 20.8155 11.1086ZM20.8155 12.6208H22.6909C22.8033 12.6208 22.9112 12.6655 22.9907 12.745C23.0702 12.8246 23.1149 12.9324 23.1149 13.0449C23.1149 13.1573 23.0702 13.2652 22.9907 13.3447C22.9112 13.4242 22.8033 13.4689 22.6909 13.4689H20.8151C20.7027 13.4689 20.5948 13.4242 20.5153 13.3447C20.4358 13.2652 20.3911 13.1573 20.3911 13.0449C20.3911 12.9324 20.4358 12.8246 20.5153 12.745C20.5948 12.6655 20.7031 12.6208 20.8155 12.6208ZM16.7541 12.3468C16.7541 12.5816 16.5645 12.7712 16.3301 12.7712H15.2481C15.1355 12.7712 15.0276 12.7265 14.948 12.6469C14.8684 12.5673 14.8237 12.4594 14.8237 12.3468C14.8237 12.2342 14.8684 12.1263 14.948 12.0467C15.0276 11.9671 15.1355 11.9224 15.2481 11.9224H16.3297C16.564 11.9224 16.7541 12.1124 16.7541 12.3468ZM10.9661 8.7449C10.9661 8.64714 10.9916 8.5498 11.0467 8.46082L13.0373 5.27752C13.1347 5.12044 13.3047 5.02728 13.4914 5.02728H16.046C16.3389 5.02728 16.5808 5.26498 16.5808 5.56201V10.1197C16.5808 10.4172 16.3389 10.6586 16.046 10.6586H11.5008C11.2038 10.6586 10.9661 10.4172 10.9661 10.1197V8.7449ZM23.8802 17.2834H22.4034V15.6583H11.3947V17.2834H9.32808C8.57067 17.2838 7.84438 17.5848 7.30881 18.1203C6.77324 18.6559 6.47222 19.3822 6.47188 20.1396C6.47111 20.5151 6.54444 20.8871 6.68765 21.2342C6.83086 21.5813 7.04115 21.8967 7.30647 22.1625C7.5718 22.4282 7.88693 22.6389 8.23384 22.7826C8.58074 22.9264 8.95259 23.0002 9.32808 23H23.8802C25.4547 23 26.7364 21.7183 26.7364 20.1396C26.7364 18.5743 25.4685 17.2834 23.8802 17.2834ZM9.38741 21.3791C9.05819 21.3795 8.74228 21.2492 8.50914 21.0168C8.276 20.7843 8.14472 20.4688 8.14416 20.1396C8.1456 19.8107 8.27717 19.4958 8.51014 19.2636C8.7431 19.0314 9.0585 18.9009 9.38741 18.9006C9.71596 18.9009 10.031 19.0315 10.2633 19.2638C10.4957 19.4961 10.6264 19.8111 10.6269 20.1396C10.6271 20.3025 10.5952 20.4637 10.533 20.6142C10.4708 20.7647 10.3795 20.9014 10.2643 21.0166C10.1492 21.1317 10.0125 21.223 9.86199 21.2852C9.71151 21.3474 9.55024 21.3793 9.38741 21.3791ZM14.1661 21.3791C14.0033 21.3793 13.842 21.3474 13.6915 21.2852C13.5411 21.223 13.4043 21.1317 13.2892 21.0166C13.174 20.9014 13.0828 20.7647 13.0205 20.6142C12.9583 20.4637 12.9264 20.3025 12.9266 20.1396C12.9271 19.8111 13.0578 19.4961 13.2902 19.2638C13.5226 19.0315 13.8376 18.9009 14.1661 18.9006C14.4946 18.901 14.8095 19.0317 15.0418 19.264C15.2741 19.4962 15.4047 19.8111 15.4052 20.1396C15.4054 20.3024 15.3735 20.4637 15.3113 20.6141C15.2491 20.7646 15.1579 20.9013 15.0428 21.0164C14.9277 21.1315 14.791 21.2228 14.6406 21.2851C14.4902 21.3473 14.3289 21.3793 14.1661 21.3791ZM18.9448 21.3791C18.782 21.3793 18.6207 21.3474 18.4702 21.2852C18.3198 21.223 18.183 21.1317 18.0679 21.0166C17.9528 20.9014 17.8615 20.7647 17.7993 20.6142C17.737 20.4637 17.7051 20.3025 17.7054 20.1396C17.7058 19.8111 17.8365 19.4961 18.0689 19.2638C18.3013 19.0315 18.6163 18.9009 18.9448 18.9006C19.2733 18.901 19.5882 19.0317 19.8205 19.264C20.0528 19.4962 20.1835 19.8111 20.1839 20.1396C20.1841 20.3024 20.1522 20.4637 20.09 20.6141C20.0279 20.7646 19.9366 20.9013 19.8215 21.0164C19.7064 21.1315 19.5697 21.2228 19.4193 21.2851C19.2689 21.3473 19.1076 21.3793 18.9448 21.3791ZM23.7231 21.3791C23.5603 21.3793 23.3991 21.3473 23.2487 21.2851C23.0982 21.2228 22.9616 21.1315 22.8465 21.0164C22.7314 20.9013 22.6401 20.7646 22.5779 20.6141C22.5157 20.4637 22.4838 20.3024 22.4841 20.1396C22.4845 19.8111 22.6152 19.4962 22.8475 19.264C23.0797 19.0317 23.3946 18.901 23.7231 18.9006C24.0517 18.9009 24.3667 19.0315 24.5991 19.2638C24.8314 19.4961 24.9622 19.8111 24.9626 20.1396C24.9628 20.3025 24.9309 20.4637 24.8687 20.6142C24.8065 20.7647 24.7152 20.9014 24.6001 21.0166C24.4849 21.1317 24.3482 21.223 24.1977 21.2852C24.0472 21.3474 23.886 21.3793 23.7231 21.3791Z" fill="white"/>
</svg>
